<?xml version="1.0" encoding="UTF-8"?>
<svg id="Calque_2" data-name="Calque 2" xmlns="http://www.w3.org/2000/svg" viewBox="0 0 406.76 34.77">
  <defs>
    <style>
      .cls-1 {
        fill: #da2128;
        stroke-width: 0px;
      }
    </style>
  </defs>
  <g id="Calque_1-2" data-name="Calque 1">
    <g>
      <path class="cls-1" d="m25.37.94v7.99H8.93v5.4h12.69v7.99h-12.69v11.51H0V.94h25.37Z"/>
      <path class="cls-1" d="m47.21,34.77c-10.34,0-18.32-7.99-18.32-17.38S36.87,0,47.21,0s18.32,7.99,18.32,17.38-7.99,17.38-18.32,17.38Zm0-7.99c5.17,0,9.16-3.99,9.16-9.39s-3.99-9.4-9.16-9.4-9.16,4-9.16,9.4,3.99,9.39,9.16,9.39Z"/>
      <path class="cls-1" d="m72.33.94h15.5c7.05,0,11.98,4.93,11.98,11.28,0,7.05-5.64,9.63-5.64,9.63l6.81,11.98h-9.4l-5.64-10.34h-4.7v10.34h-8.93V.94Zm15.03,7.99h-6.11v6.58h6.11c2.11,0,3.52-1.41,3.52-3.29s-1.41-3.29-3.52-3.29Z"/>
      <path class="cls-1" d="m116.25,14.33v19.5h-8.93V.94h7.99l10.1,12.92,10.1-12.92h7.99v32.89h-8.93V14.33l-9.16,11.51-9.16-11.51Z"/>
      <path class="cls-1" d="m160.4,26.78l-2.35,7.05h-9.63L160.87.94h9.87l12.45,32.89h-9.63l-2.35-7.05h-10.81Zm5.4-16.68l-3.05,9.63h6.11l-3.05-9.63Z"/>
      <path class="cls-1" d="m213.95.94c7.28,0,12.21,4.93,12.21,11.51s-4.93,11.51-12.21,11.51h-5.87v9.87h-8.93V.94h14.8Zm-5.87,7.99v7.05h5.4c2.12,0,3.76-1.65,3.76-3.52s-1.64-3.52-3.76-3.52h-5.4Z"/>
      <path class="cls-1" d="m249.41,34.77c-10.34,0-18.32-7.99-18.32-17.38S239.07,0,249.41,0s18.32,7.99,18.32,17.38-7.99,17.38-18.32,17.38Zm0-7.99c5.17,0,9.16-3.99,9.16-9.39s-3.99-9.4-9.16-9.4-9.16,4-9.16,9.4,3.99,9.39,9.16,9.39Z"/>
      <path class="cls-1" d="m269.36.94h9.63l7.05,22.55,7.05-22.55h9.63l-11.74,32.89h-9.87L269.36.94Z"/>
      <path class="cls-1" d="m333.95,26.31v7.52h-25.84V.94h25.37v7.52h-16.44v5.17h12.69v7.05h-12.69v5.64h16.92Z"/>
      <path class="cls-1" d="m340.76.94h15.5c7.05,0,11.98,4.93,11.98,11.28,0,7.05-5.64,9.63-5.64,9.63l6.81,11.98h-9.4l-5.64-10.34h-4.7v10.34h-8.93V.94Zm15.03,7.99h-6.11v6.58h6.11c2.12,0,3.52-1.41,3.52-3.29s-1.41-3.29-3.52-3.29Z"/>
      <path class="cls-1" d="m383.97,26.78l-2.35,7.05h-9.63L384.44.94h9.87l12.45,32.89h-9.63l-2.35-7.05h-10.8Zm5.4-16.68l-3.06,9.63h6.11l-3.05-9.63Z"/>
    </g>
  </g>
</svg>